<svg width="512" height="109" viewBox="0 0 512 109" fill="none" xmlns="http://www.w3.org/2000/svg">
<rect width="512" height="109" fill="white"/>
<path d="M122.187 87.3188H117V37.7249H122.187V87.3188ZM135.641 50.464L135.803 55.0965C138.036 51.554 140.954 49.7828 144.556 49.7828C150.733 49.7828 153.849 54.1767 153.903 62.9647V87.3188H148.906V62.9306C148.887 60.2738 148.401 58.3095 147.447 57.0378C146.51 55.7664 145.042 55.1305 143.043 55.1305C141.422 55.1305 139.999 55.6754 138.775 56.7654C137.55 57.8554 136.595 59.286 135.911 61.0572V87.3188H130.913V50.464H135.641ZM160.225 68.5848C160.225 62.9307 161.287 58.389 163.413 54.9602C165.538 51.5085 168.321 49.7828 171.761 49.7828C175.182 49.7828 177.893 51.2587 179.892 54.2108V35H184.89V87.3188H180.297L180.054 83.3675C178.055 86.4559 175.272 88 171.706 88C168.321 88 165.556 86.2514 163.413 82.7545C161.287 79.2575 160.225 74.6932 160.225 69.0617V68.5848ZM165.222 69.3002C165.222 73.4784 165.907 76.7484 167.276 79.1099C168.645 81.4715 170.536 82.6523 172.949 82.6523C176.119 82.6523 178.433 80.8584 179.892 77.2706V60.3419C178.397 56.8675 176.101 55.1305 173.004 55.1305C170.554 55.1305 168.645 56.3226 167.276 58.7069C165.907 61.0913 165.222 64.6223 165.222 69.3002ZM191.347 68.5508C191.347 64.9403 191.905 61.693 193.022 58.8091C194.156 55.9252 195.723 53.6999 197.723 52.133C199.739 50.5662 202.035 49.7828 204.611 49.7828C208.591 49.7828 211.806 51.52 214.256 54.9942C216.723 58.4685 217.957 63.0896 217.957 68.8574V69.3002C217.957 72.8879 217.408 76.1125 216.309 78.9737C215.228 81.8121 213.67 84.0261 211.636 85.6157C209.618 87.2053 207.294 88 204.665 88C200.703 88 197.488 86.2629 195.021 82.7886C192.571 79.3143 191.347 74.716 191.347 68.9936V68.5508ZM196.372 69.3002C196.372 73.3876 197.119 76.6689 198.614 79.144C200.127 81.6192 202.144 82.8566 204.665 82.8566C207.205 82.8566 209.222 81.6078 210.717 79.1099C212.212 76.5894 212.959 73.0696 212.959 68.5508C212.959 64.5087 212.194 61.2389 210.663 58.7411C209.15 56.2205 207.133 54.9602 204.611 54.9602C202.144 54.9602 200.153 56.1978 198.641 58.6729C197.128 61.1481 196.372 64.6905 196.372 69.3002ZM245.431 37.7249L258.292 78.1903L271.15 37.7249H277.877V87.3188H272.69V68.0058L273.176 47.1601L260.264 87.3188H256.291L243.406 47.2622L243.918 68.0058V87.3188H238.732V37.7249H245.431ZM298.382 88C294.42 88 291.196 86.365 288.71 83.0951C286.225 79.8026 284.982 75.4085 284.982 69.9132V68.7551C284.982 65.0991 285.531 61.8406 286.631 58.9794C287.746 56.0955 289.296 53.8475 291.277 52.2353C293.277 50.6003 295.437 49.7828 297.761 49.7828C301.561 49.7828 304.515 51.361 306.622 54.5173C308.729 57.6738 309.782 62.1925 309.782 68.0739V70.6967H289.981C290.053 74.3299 290.89 77.2706 292.492 79.5186C294.114 81.744 296.167 82.8566 298.652 82.8566C300.418 82.8566 301.913 82.4025 303.136 81.4942C304.361 80.5859 305.433 79.3825 306.352 77.8837L309.405 80.8811C306.955 85.627 303.282 88 298.382 88ZM297.761 54.9602C295.743 54.9602 294.05 55.8912 292.682 57.7533C291.314 59.5926 290.466 62.1812 290.142 65.5193H304.785V65.0424C304.641 61.8406 303.956 59.3655 302.732 57.617C301.507 55.8457 299.85 54.9602 297.761 54.9602ZM320.292 50.464L320.426 54.5514C322.569 51.3723 325.461 49.7828 329.099 49.7828C333.187 49.7828 335.97 51.7583 337.447 55.7096C338.419 53.9383 339.679 52.5077 341.229 51.4177C342.795 50.3277 344.642 49.7828 346.767 49.7828C353.178 49.7828 356.438 54.0631 356.547 62.624V87.3188H351.548V62.9988C351.548 60.3647 351.071 58.4005 350.117 57.106C349.162 55.789 347.56 55.1305 345.309 55.1305C343.453 55.1305 341.913 55.8344 340.688 57.2423C339.464 58.6275 338.752 60.5009 338.554 62.8625V87.3188H333.53V63.1691C333.53 57.8101 331.449 55.1305 327.289 55.1305C324.011 55.1305 321.768 56.8903 320.562 60.4101V87.3188H315.564V50.464H320.292ZM388.857 69.3002C388.857 74.9316 387.83 79.4618 385.777 82.8908C383.724 86.2969 380.968 88 377.511 88C373.819 88 370.964 86.3537 368.947 83.0611L368.704 87.3188H364.111V35H369.109V54.5173C371.125 51.361 373.908 49.7828 377.457 49.7828C381.004 49.7828 383.787 51.4745 385.805 54.858C387.839 58.2415 388.857 62.8738 388.857 68.7551V69.3002ZM383.859 68.5848C383.859 64.2931 383.201 60.9778 381.887 58.6388C380.573 56.2999 378.681 55.1305 376.214 55.1305C372.918 55.1305 370.55 57.0606 369.109 60.921V76.8619C370.64 80.7221 373.026 82.6523 376.268 82.6523C378.664 82.6523 380.528 81.4829 381.86 79.144C383.193 76.8051 383.859 73.2853 383.859 68.5848ZM409.308 56.1183C408.551 55.9593 407.732 55.8799 406.849 55.8799C403.572 55.8799 401.347 57.6397 400.176 61.1594V87.3188H395.178V50.464H400.041L400.122 54.7217C401.762 51.429 404.084 49.7828 407.093 49.7828C408.065 49.7828 408.804 49.9418 409.308 50.2597V56.1183ZM430.893 87.3188C430.604 86.5921 430.371 85.2978 430.191 83.4357C427.867 86.4785 425.094 88 421.87 88C418.988 88 416.62 86.9782 414.765 84.9345C412.928 82.8681 412.009 80.2567 412.009 77.1003C412.009 73.2627 413.162 70.2878 415.467 68.1761C417.791 66.0415 421.05 64.9743 425.247 64.9743H430.109V62.079C430.109 59.8764 429.587 58.1279 428.542 56.8335C427.498 55.5166 425.958 54.858 423.923 54.858C422.14 54.858 420.645 55.4256 419.438 56.5611C418.231 57.6965 417.628 59.0702 417.628 60.6825H412.603C412.603 58.8432 413.117 57.072 414.144 55.3689C415.189 53.6432 416.593 52.2806 418.358 51.2815C420.141 50.2824 422.095 49.7828 424.22 49.7828C427.588 49.7828 430.227 50.8501 432.136 52.9846C434.045 55.0965 435.035 58.0144 435.107 61.7384V78.7012C435.107 82.0846 435.45 84.7755 436.134 86.7738V87.3188H430.893ZM422.6 82.516C424.165 82.516 425.652 82.0051 427.057 80.9832C428.461 79.9614 429.479 78.633 430.109 76.998V69.4363H426.193C420.069 69.4363 417.008 71.6958 417.008 76.2147C417.008 78.1903 417.529 79.7344 418.573 80.847C419.619 81.9598 420.961 82.516 422.6 82.516ZM447.669 50.464L447.832 55.0965C450.065 51.554 452.983 49.7828 456.585 49.7828C462.762 49.7828 465.878 54.1767 465.932 62.9647V87.3188H460.934V62.9306C460.917 60.2738 460.43 58.3095 459.476 57.0378C458.538 55.7664 457.072 55.1305 455.072 55.1305C453.451 55.1305 452.028 55.6754 450.803 56.7654C449.578 57.8554 448.624 59.286 447.94 61.0572V87.3188H442.942V50.464H447.669ZM485.6 88C481.637 88 478.413 86.365 475.928 83.0951C473.443 79.8026 472.2 75.4085 472.2 69.9132V68.7551C472.2 65.0991 472.749 61.8406 473.848 58.9794C474.964 56.0955 476.513 53.8475 478.495 52.2353C480.493 50.6003 482.655 49.7828 484.979 49.7828C488.778 49.7828 491.733 51.361 493.84 54.5173C495.947 57.6738 497 62.1925 497 68.0739V70.6967H477.197C477.27 74.3299 478.107 77.2706 479.71 79.5186C481.331 81.744 483.385 82.8566 485.869 82.8566C487.634 82.8566 489.129 82.4025 490.354 81.4942C491.579 80.5859 492.65 79.3825 493.569 77.8837L496.623 80.8811C494.172 85.627 490.498 88 485.6 88ZM484.979 54.9602C482.961 54.9602 481.268 55.8912 479.899 57.7533C478.53 59.5926 477.684 62.1812 477.359 65.5193H492.002V65.0424C491.858 61.8406 491.174 59.3655 489.949 57.617C488.724 55.8457 487.067 54.9602 484.979 54.9602Z" fill="black"/>
<circle cx="49.5" cy="54.5" r="42.5" fill="#010101"/>
<path d="M59.2325 42.1664L49.5265 72.419L39.8505 42.1664H26.0531V85.649H36.5654V75.4952L35.55 54.7093L46.0623 85.649H52.9909L63.533 54.6796L62.5176 75.4952V85.649H73V42.1664H59.2325Z" fill="white"/>
<path d="M33.9638 38.9277C29.5655 38.9277 26 35.3622 26 30.9639C26 26.5655 29.5655 23 33.9638 23C38.3621 23 41.9277 26.5655 41.9277 30.9639C41.9277 35.3622 38.3621 38.9277 33.9638 38.9277Z" fill="url(#paint0_linear)"/>
<defs>
<linearGradient id="paint0_linear" x1="41.9277" y1="23" x2="26" y2="38.9277" gradientUnits="userSpaceOnUse">
<stop stop-color="#A40000"/>
<stop offset="1" stop-color="#FE3232"/>
</linearGradient>
</defs>
</svg>
