<svg width="500" height="100" viewBox="0 0 500 100" fill="none" xmlns="http://www.w3.org/2000/svg">
<path d="M127.975 76.8415H123V24.8563H127.975V76.8415ZM140.878 38.2096L141.033 43.0654C143.175 39.3522 145.973 37.4956 149.428 37.4956C155.352 37.4956 158.34 42.1014 158.392 51.3131V76.8415H153.599V51.2774C153.582 48.4925 153.115 46.4335 152.201 45.1005C151.302 43.7677 149.894 43.1011 147.977 43.1011C146.422 43.1011 145.058 43.6723 143.883 44.8149C142.709 45.9574 141.793 47.457 141.137 49.3136V76.8415H136.343V38.2096H140.878ZM164.455 57.2042C164.455 51.2774 165.475 46.5168 167.513 42.9226C169.551 39.3046 172.22 37.4956 175.519 37.4956C178.801 37.4956 181.401 39.0427 183.317 42.1372V22H188.11V76.8415H183.706L183.473 72.6998C181.555 75.937 178.887 77.5556 175.467 77.5556C172.22 77.5556 169.569 75.7227 167.513 72.0572C165.475 68.3915 164.455 63.6072 164.455 57.7041V57.2042ZM169.248 57.9541C169.248 62.3337 169.905 65.7614 171.218 68.2368C172.531 70.7122 174.344 71.95 176.659 71.95C179.699 71.95 181.919 70.0696 183.317 66.3088V48.5638C181.884 44.922 179.682 43.1011 176.711 43.1011C174.362 43.1011 172.531 44.3507 171.218 46.85C169.905 49.3494 169.248 53.0506 169.248 57.9541ZM194.303 57.1685C194.303 53.384 194.838 49.9801 195.91 46.9572C196.998 43.9342 198.501 41.6016 200.418 39.9591C202.352 38.3168 204.554 37.4956 207.025 37.4956C210.842 37.4956 213.926 39.3165 216.275 42.9583C218.641 46.6001 219.825 51.4439 219.825 57.4899V57.9541C219.825 61.7148 219.298 65.0948 218.244 68.094C217.207 71.0693 215.713 73.3901 213.762 75.0563C211.827 76.7225 209.598 77.5556 207.077 77.5556C203.276 77.5556 200.193 75.7347 197.827 72.0928C195.478 68.451 194.303 63.631 194.303 57.6327V57.1685ZM199.123 57.9541C199.123 62.2385 199.839 65.678 201.273 68.2725C202.724 70.867 204.659 72.1642 207.077 72.1642C209.512 72.1642 211.447 70.8551 212.881 68.2368C214.314 65.5947 215.031 61.9053 215.031 57.1685C215.031 52.9316 214.297 49.5041 212.829 46.8858C211.378 44.2437 209.444 42.9226 207.025 42.9226C204.659 42.9226 202.749 44.2199 201.299 46.8143C199.848 49.4089 199.123 53.1221 199.123 57.9541ZM246.174 24.8563L258.507 67.2728L270.84 24.8563H277.292V76.8415H272.317V56.5973L272.783 34.7464L260.399 76.8415H256.59L244.231 34.8535L244.723 56.5973V76.8415H239.749V24.8563H246.174ZM296.957 77.5556C293.157 77.5556 290.065 75.8417 287.681 72.4142C285.298 68.9628 284.106 64.3569 284.106 58.5967V57.3827C284.106 53.5505 284.633 50.1348 285.687 47.1357C286.757 44.1127 288.243 41.7563 290.143 40.0663C292.061 38.3525 294.133 37.4956 296.361 37.4956C300.005 37.4956 302.839 39.1499 304.86 42.4584C306.881 45.767 307.891 50.5037 307.891 56.6686V59.4179H288.9C288.968 63.2263 289.772 66.3088 291.309 68.6652C292.864 70.9979 294.833 72.1642 297.216 72.1642C298.909 72.1642 300.343 71.6881 301.517 70.736C302.691 69.784 303.72 68.5225 304.601 66.9515L307.528 70.0935C305.179 75.0681 301.656 77.5556 296.957 77.5556ZM296.361 42.9226C294.426 42.9226 292.803 43.8985 291.491 45.8504C290.178 47.7784 289.365 50.4919 289.054 53.9909H303.098V53.491C302.96 50.1348 302.304 47.5404 301.129 45.7075C299.954 43.8509 298.365 42.9226 296.361 42.9226ZM317.97 38.2096L318.099 42.4942C320.155 39.1617 322.928 37.4956 326.416 37.4956C330.337 37.4956 333.006 39.5664 334.422 43.7081C335.355 41.8515 336.564 40.3518 338.05 39.2094C339.553 38.0668 341.323 37.4956 343.361 37.4956C349.51 37.4956 352.636 41.9823 352.741 50.9561V76.8415H347.947V51.3488C347.947 48.5877 347.489 46.5288 346.574 45.172C345.659 43.7914 344.122 43.1011 341.963 43.1011C340.183 43.1011 338.707 43.839 337.532 45.3148C336.357 46.7668 335.675 48.7305 335.484 51.2059V76.8415H330.666V51.5273C330.666 45.9099 328.67 43.1011 324.681 43.1011C321.537 43.1011 319.386 44.9458 318.229 48.6353V76.8415H313.436V38.2096H317.97ZM383.729 57.9541C383.729 63.857 382.744 68.6057 380.774 72.2C378.806 75.7704 376.162 77.5556 372.846 77.5556C369.305 77.5556 366.567 75.8299 364.633 72.3785L364.4 76.8415H359.995V22H364.789V42.4584C366.723 39.1499 369.391 37.4956 372.795 37.4956C376.197 37.4956 378.866 39.2689 380.801 42.8154C382.752 46.3621 383.729 51.2179 383.729 57.3827V57.9541ZM378.935 57.2042C378.935 52.7056 378.304 49.2304 377.044 46.7786C375.783 44.3269 373.97 43.1011 371.603 43.1011C368.442 43.1011 366.17 45.1243 364.789 49.1709V65.8804C366.257 69.9268 368.545 71.95 371.655 71.95C373.952 71.95 375.74 70.7242 377.018 68.2725C378.296 65.8209 378.935 62.1314 378.935 57.2042ZM403.342 44.1365C402.616 43.9699 401.83 43.8867 400.984 43.8867C397.84 43.8867 395.707 45.7314 394.584 49.4207V76.8415H389.791V38.2096H394.455L394.532 42.6727C396.105 39.2212 398.333 37.4956 401.217 37.4956C402.15 37.4956 402.859 37.6622 403.342 37.9954V44.1365ZM424.044 76.8415C423.767 76.0798 423.543 74.7231 423.37 72.7712C421.142 75.9607 418.482 77.5556 415.39 77.5556C412.626 77.5556 410.355 76.4844 408.576 74.3422C406.814 72.1762 405.933 69.4389 405.933 66.1302C405.933 62.1077 407.039 58.9894 409.249 56.7758C411.478 54.5383 414.604 53.4196 418.628 53.4196H423.292V50.3847C423.292 48.0759 422.791 46.2431 421.789 44.8863C420.787 43.5058 419.311 42.8154 417.359 42.8154C415.649 42.8154 414.215 43.4105 413.058 44.6007C411.9 45.7909 411.322 47.2309 411.322 48.9209H406.503C406.503 46.9928 406.995 45.1363 407.98 43.351C408.982 41.5421 410.329 40.1138 412.022 39.0665C413.732 38.0193 415.606 37.4956 417.644 37.4956C420.874 37.4956 423.405 38.6143 425.236 40.8517C427.066 43.0654 428.017 46.1241 428.085 50.0277V67.8084C428.085 71.3549 428.414 74.1756 429.07 76.2702V76.8415H424.044ZM416.09 71.8072C417.592 71.8072 419.017 71.2716 420.365 70.2005C421.711 69.1294 422.688 67.7369 423.292 66.0231V58.0968H419.536C413.662 58.0968 410.727 60.4652 410.727 65.202C410.727 67.2728 411.227 68.8914 412.229 70.0577C413.231 71.2241 414.518 71.8072 416.09 71.8072ZM440.133 38.2096L440.289 43.0654C442.431 39.3522 445.229 37.4956 448.684 37.4956C454.609 37.4956 457.597 42.1014 457.649 51.3131V76.8415H452.855V51.2774C452.838 48.4925 452.372 46.4335 451.456 45.1005C450.558 43.7677 449.15 43.1011 447.233 43.1011C445.679 43.1011 444.314 43.6723 443.139 44.8149C441.964 45.9574 441.049 47.457 440.392 49.3136V76.8415H435.599V38.2096H440.133ZM476.511 77.5556C472.71 77.5556 469.619 75.8417 467.235 72.4142C464.852 68.9628 463.66 64.3569 463.66 58.5967V57.3827C463.66 53.5505 464.186 50.1348 465.24 47.1357C466.311 44.1127 467.797 41.7563 469.697 40.0663C471.613 38.3525 473.687 37.4956 475.915 37.4956C479.559 37.4956 482.393 39.1499 484.413 42.4584C486.434 45.767 487.444 50.5037 487.444 56.6686V59.4179H468.453C468.522 63.2263 469.325 66.3088 470.862 68.6652C472.417 70.9979 474.386 72.1642 476.77 72.1642C478.462 72.1642 479.896 71.6881 481.071 70.736C482.245 69.784 483.273 68.5225 484.154 66.9515L487.082 70.0935C484.733 75.0681 481.209 77.5556 476.511 77.5556ZM475.915 42.9226C473.98 42.9226 472.356 43.8985 471.043 45.8504C469.731 47.7784 468.919 50.4919 468.608 53.9909H482.651V53.491C482.513 50.1348 481.856 47.5404 480.682 45.7075C479.508 43.8509 477.919 42.9226 475.915 42.9226Z" fill="black"/>
<path d="M58 95C82.8528 95 103 74.8528 103 50C103 25.1472 82.8528 5 58 5C33.1472 5 13 25.1472 13 50C13 74.8528 33.1472 95 58 95Z" fill="#010101"/>
<path d="M68.305 36.9408L58.028 68.973L47.7828 36.9408H33.1738V82.9812H44.3045V72.2301L43.2294 50.2215L54.36 82.9812H61.6962L72.8584 50.1901L71.7833 72.2301V82.9812H82.8823V36.9408H68.305Z" fill="white"/>
<path d="M41.5499 33.5116C36.8929 33.5116 33.1176 29.7364 33.1176 25.0793C33.1176 20.4222 36.8929 16.647 41.5499 16.647C46.2069 16.647 49.9822 20.4222 49.9822 25.0793C49.9822 29.7364 46.2069 33.5116 41.5499 33.5116Z" fill="url(#paint0_linear)"/>
<defs>
<linearGradient id="paint0_linear" x1="49.9822" y1="16.647" x2="33.1176" y2="33.5116" gradientUnits="userSpaceOnUse">
<stop stop-color="#A40000"/>
<stop offset="1" stop-color="#FE3232"/>
</linearGradient>
</defs>
</svg>
